<svg width="387" height="353" viewBox="0 0 387 353" fill="none" xmlns="http://www.w3.org/2000/svg">
<path fill-rule="evenodd" clip-rule="evenodd" d="M19.9041 182.774C19.6986 145.29 -10.5918 105.717 8.79593 73.6362C28.2185 41.4971 75.5715 45.7551 110.711 32.5131C141.438 20.934 168.709 2.70309 201.502 1.01733C241.557 -1.04171 284.194 -1.15622 317.006 21.9084C352.996 47.2068 380.877 86.9527 385.925 130.654C390.922 173.908 367.3 214.367 343.448 250.794C321.483 284.338 291.856 311.083 256.012 329.053C219.89 347.163 180.523 354.316 140.147 352.718C94.3192 350.905 36.6339 356.763 10.1434 319.323C-16.8744 281.137 20.1607 229.55 19.9041 182.774Z" fill="#8D5CF6"/>
</svg>
