<svg width="394" height="381" viewBox="0 0 394 381" fill="none" xmlns="http://www.w3.org/2000/svg">
<path fill-rule="evenodd" clip-rule="evenodd" d="M211.573 0.731981C249.543 1.92779 277.866 32.9083 308.065 55.9545C337.45 78.3785 370.267 98.4545 384.389 132.614C399.14 168.295 392.239 207.415 386.462 245.59C379.506 291.547 389.369 355.624 347.563 375.94C303.506 397.349 260.03 337.746 211.573 330.577C174.403 325.078 137.157 352.812 101.979 339.608C61.6843 324.483 24.6719 294.674 9.06144 254.565C-6.89812 213.559 -0.629513 165.592 18.908 126.164C37.0135 89.6266 76.3877 71.9827 110.561 49.7344C142.71 28.8039 173.23 -0.475587 211.573 0.731981Z" fill="#FFF2B7"/>
</svg>
